<svg width="12" height="12" viewBox="0 0 12 12" fill="none" xmlns="http://www.w3.org/2000/svg">
<path d="M9.75 0C10.1248 0 10.4248 0.299732 10.5 0.599609L11.25 4.52832L11.9248 5.95312C11.9998 6.10303 12 6.10321 12 6.25293V9.25293C12 9.70293 11.7 10.0029 11.25 10.0029V10.7529C11.25 11.2029 10.95 11.5029 10.5 11.5029H9.25C8.8 11.5029 8.5 11.2029 8.5 10.7529V10.0029H3.5V10.7529C3.5 11.2029 3.2 11.5029 2.75 11.5029H1.5C1.05 11.5029 0.75 11.2029 0.75 10.7529V10.0029C0.3 10.0029 0 9.70293 0 9.25293V6.25293C2.98792e-08 6.10321 0.000242663 6.10303 0.0751953 5.95312L0.75 4.52832L1.5 0.599609C1.57515 0.299732 1.87515 0 2.25 0H9.75ZM1.5 6.40332V8.50293H10.5V6.40332L10.0498 5.50293H1.9502L1.5 6.40332ZM3.5498 6.0332C4.10208 6.0332 4.54979 6.48093 4.5498 7.0332C4.5498 7.58549 4.10209 8.0332 3.5498 8.0332C2.99761 8.0331 2.5498 7.58542 2.5498 7.0332C2.54982 6.481 2.99762 6.03331 3.5498 6.0332ZM8.4502 6.0332C9.00238 6.03331 9.45018 6.481 9.4502 7.0332C9.4502 7.58542 9.00239 8.0331 8.4502 8.0332C7.89791 8.0332 7.4502 7.58549 7.4502 7.0332C7.45021 6.48093 7.89792 6.0332 8.4502 6.0332ZM2.40039 4.00293H9.59961L9.0752 1.5H2.84961L2.40039 4.00293Z" fill="#000134"/>
</svg>
