<svg width="12" height="12" viewBox="0 0 12 12" fill="none" xmlns="http://www.w3.org/2000/svg">
<path d="M2.25 7.5C2.84674 7.5 3.41886 7.73722 3.84082 8.15918C4.26278 8.58114 4.5 9.15326 4.5 9.75C4.5 10.1949 4.36826 10.63 4.12109 11C3.87388 11.37 3.52241 11.6588 3.11133 11.8291C2.70035 11.9993 2.24782 12.0437 1.81152 11.957C1.37507 11.8702 0.973848 11.6555 0.65918 11.3408C0.344512 11.0262 0.129785 10.6249 0.0429688 10.1885C-0.0437121 9.75218 0.000667492 9.29965 0.170898 8.88867C0.341202 8.47759 0.630024 8.12612 1 7.87891C1.36998 7.63174 1.80505 7.5 2.25 7.5ZM9.75 7.5C10.3467 7.5 10.9189 7.73722 11.3408 8.15918C11.7628 8.58114 12 9.15326 12 9.75C12 10.1949 11.8683 10.63 11.6211 11C11.3739 11.37 11.0224 11.6588 10.6113 11.8291C10.2004 11.9993 9.74782 12.0437 9.31152 11.957C8.87507 11.8702 8.47385 11.6555 8.15918 11.3408C7.84451 11.0262 7.62979 10.6249 7.54297 10.1885C7.45629 9.75218 7.50067 9.29965 7.6709 8.88867C7.8412 8.47759 8.13002 8.12612 8.5 7.87891C8.86998 7.63174 9.30505 7.5 9.75 7.5ZM6.80273 3.00195C6.9828 3.01477 7.15263 3.09208 7.28027 3.21973L9.13477 5.07422C9.24718 5.18664 9.39962 5.24988 9.55859 5.25H10.6504C10.9815 5.25021 11.2498 5.51854 11.25 5.84961V6.15039C11.2498 6.48145 10.9815 6.74979 10.6504 6.75H9C8.80111 6.74996 8.61034 6.67093 8.46973 6.53027L6.67969 4.74023L5.04785 5.96387L6.41602 6.87598C6.5187 6.94449 6.60291 7.03763 6.66113 7.14648C6.7193 7.25529 6.75002 7.37662 6.75 7.5V10.6504C6.74979 10.9815 6.48145 11.2498 6.15039 11.25H5.84961C5.51855 11.2498 5.25022 10.9814 5.25 10.6504V8.22266C5.25 8.02197 5.14943 7.83489 4.98242 7.72363L4.21582 7.21289C4.01625 7.07978 3.85142 6.90037 3.73535 6.69043C3.61934 6.48054 3.55544 6.24559 3.54883 6.00586C3.54227 5.76619 3.593 5.5284 3.69727 5.3125C3.80159 5.09649 3.95651 4.90856 4.14844 4.76465L6.2998 3.15039C6.44413 3.04218 6.62281 2.98925 6.80273 3.00195ZM2.10352 9.01465C1.95811 9.04361 1.82457 9.11489 1.71973 9.21973C1.61489 9.32457 1.54361 9.45811 1.51465 9.60352C1.48571 9.74897 1.4999 9.90009 1.55664 10.0371C1.6134 10.1741 1.70968 10.2916 1.83301 10.374C1.95634 10.4564 2.10166 10.5 2.25 10.5C2.44891 10.5 2.63962 10.4209 2.78027 10.2803C2.92093 10.1396 3 9.94891 3 9.75C3 9.60166 2.95643 9.45634 2.87402 9.33301C2.79161 9.20968 2.67415 9.1134 2.53711 9.05664C2.40009 8.9999 2.24897 8.98571 2.10352 9.01465ZM9.60352 9.01465C9.45811 9.04361 9.32457 9.11489 9.21973 9.21973C9.11489 9.32457 9.04361 9.45811 9.01465 9.60352C8.98571 9.74897 8.9999 9.90009 9.05664 10.0371C9.1134 10.1741 9.20968 10.2916 9.33301 10.374C9.45634 10.4564 9.60166 10.5 9.75 10.5C9.94891 10.5 10.1396 10.4209 10.2803 10.2803C10.4209 10.1396 10.5 9.94891 10.5 9.75C10.5 9.60166 10.4564 9.45634 10.374 9.33301C10.2916 9.20968 10.1741 9.1134 10.0371 9.05664C9.90009 8.9999 9.74897 8.98571 9.60352 9.01465ZM9.02344 0C9.85178 9.89488e-05 10.5234 0.671634 10.5234 1.5C10.5234 2.32837 9.85178 2.9999 9.02344 3C8.19501 3 7.52344 2.32843 7.52344 1.5C7.52344 0.671573 8.19501 0 9.02344 0Z" fill="#000134"/>
</svg>
