<svg width="8" height="12" viewBox="0 0 8 12" fill="none" xmlns="http://www.w3.org/2000/svg">
<path d="M2.99023 3.37988C3.18848 3.34076 3.48096 3.36192 3.75098 3.54199L4.87598 4.29297C4.88234 4.29719 4.88936 4.30088 4.89648 4.30371C4.93445 4.31859 4.97613 4.30111 5.01367 4.28516L6.22363 3.77148C6.5286 3.6419 6.88115 3.78391 7.01074 4.08887L7.03027 4.13477C7.15968 4.43985 7.01708 4.79252 6.71191 4.92188L5.37109 5.49023C5.23143 5.53758 5.08498 5.56165 4.9375 5.56152C4.66898 5.5615 4.40608 5.48189 4.18262 5.33301L3.70898 5.01758L3.33008 6.43359C3.33181 6.43529 3.33419 6.43677 3.33594 6.43848L4.68652 7.78906C4.96514 8.06764 5.12196 8.44584 5.12207 8.83984V11.0039C5.12202 11.3351 4.85358 11.6033 4.52246 11.6035H4.22168C3.8906 11.6032 3.62212 11.335 3.62207 11.0039V9.09473C3.62205 8.93563 3.55879 8.78242 3.44629 8.66992L2.88184 8.10547L2.08105 11.0986C1.99523 11.4186 1.66573 11.6082 1.3457 11.5225L1.05664 11.4453C0.73674 11.3595 0.546188 11.0299 0.631836 10.71L2.1709 4.9668L1.66992 5.1543L1.18848 6.17969C1.04734 6.47934 0.689409 6.6078 0.389648 6.4668L0.344727 6.44531C0.045139 6.30427 -0.0840592 5.94717 0.0566406 5.64746L0.685547 4.31055C0.757693 4.17572 0.849035 4.05188 0.960938 3.94727C1.15707 3.76363 1.40389 3.64264 1.66895 3.59863L2.99023 3.37988ZM3.82324 0C4.65165 2.31927e-05 5.32324 0.671587 5.32324 1.5C5.32324 2.32841 4.65165 2.99998 3.82324 3C2.99481 3 2.32324 2.32843 2.32324 1.5C2.32324 0.671573 2.99481 0 3.82324 0Z" fill="#000134"/>
</svg>
